<svg width="255" height="191" viewBox="0 0 255 191" fill="none" xmlns="http://www.w3.org/2000/svg">
<g clip-path="url(#clip0)">
<path opacity="0.18" d="M84.6248 0.342797C77.9761 0.912549 71.5214 2.87313 65.679 6.09746C59.8367 9.32178 54.7371 13.7379 50.7109 19.0594C42.7923 29.6861 39.7414 43.0551 37.319 56.0928C36.7725 59.9515 35.7635 63.7304 34.3138 67.3479C31.4001 73.7582 25.8125 78.4659 21.0933 83.6878C9.07265 97.0226 2.89091 115.054 3.03945 132.913C3.11944 148.67 8.28422 172.335 23.7672 179.842C46.5694 190.805 72.4383 193.627 97.0683 187.841C112.597 184.138 127.646 177.008 143.608 177.385C159.571 177.762 174.597 185.647 190.549 186.424C199.577 186.769 208.548 184.852 216.646 180.846C224.744 176.841 231.712 170.875 236.917 163.491C241.394 156.678 244.725 149.178 246.779 141.289C249.473 131.787 251.031 121.998 251.418 112.128C252.583 80.7169 231.49 50.2767 205.289 34.5766C146.785 -0.42278 100.828 -0.936973 84.6248 0.342797Z" fill="#68E1FD"/>
<path d="M59.4065 151.55C60.6053 152.902 62.1096 153.948 63.7942 154.601C71.1986 158.029 78.9458 161.205 87.0929 161.914C99.0793 162.954 110.826 158.749 122.115 154.612C120.973 154.795 116.87 151.184 115.819 150.453C113.751 149.093 111.717 147.676 109.683 146.282C106.449 144.077 102.416 143.334 98.5766 142.74C89.9114 141.428 81.0586 142.183 72.7412 144.945C68.0044 146.5 63.5141 148.724 59.4065 151.55V151.55Z" fill="#68E1FD"/>
<path d="M59.4065 151.55C60.6053 152.902 62.1096 153.948 63.7942 154.601C71.1986 158.029 78.9458 161.205 87.0929 161.914C99.0793 162.954 110.826 158.749 122.115 154.612C120.973 154.795 116.87 151.184 115.819 150.453C113.751 149.093 111.717 147.676 109.683 146.282C106.449 144.077 102.416 143.334 98.5766 142.74C89.9114 141.428 81.0586 142.183 72.7412 144.945C68.0044 146.5 63.5141 148.724 59.4065 151.55V151.55Z" fill="#037171"/>
<path d="M98.8051 128.571C94.2345 123.715 89.5382 118.79 83.8135 115.316C78.0888 111.843 71.0958 109.946 64.6284 111.66L80.6255 135.221C83.7107 139.792 86.853 144.363 91.1722 147.791C98.7365 153.71 112.791 157 122.081 154.155C120.641 149.756 114.905 145.62 111.717 142.249L98.8051 128.571Z" fill="#68E1FD"/>
<path d="M98.8051 128.571C94.2345 123.715 89.5382 118.79 83.8135 115.316C78.0888 111.843 71.0958 109.946 64.6284 111.66L80.6255 135.221C83.7107 139.792 86.853 144.363 91.1722 147.791C98.7365 153.71 112.791 157 122.081 154.155C120.641 149.756 114.905 145.62 111.717 142.249L98.8051 128.571Z" fill="#00B9AE"/>
<path opacity="0.44" d="M49.8882 166.222C55.8642 166.222 62.0803 166.919 67.1765 170.038C67.6399 170.259 68.0117 170.635 68.2277 171.101C68.6277 172.243 67.2222 173.146 66.0567 173.523C58.9077 175.655 51.4591 176.609 44.0035 176.345C39.0323 176.23 34.0722 175.822 29.149 175.123C27.4222 175.028 25.7408 174.535 24.2356 173.683C23.4979 173.236 22.9226 172.564 22.5937 171.766C22.2647 170.969 22.1995 170.087 22.4074 169.25C23.013 167.558 24.9898 166.77 26.7838 166.679C34.3824 166.199 42.2096 166.256 49.8882 166.222Z" fill="#68E1FD"/>
<path opacity="0.44" d="M206.134 161.628L218.235 163.308C218.817 163.334 219.379 163.525 219.858 163.856C220.174 164.193 220.373 164.624 220.422 165.084C220.472 165.544 220.37 166.008 220.132 166.404C219.629 167.184 218.957 167.84 218.167 168.324C221.035 169.01 226.028 168.861 225.891 172.952C225.851 173.707 225.6 174.435 225.165 175.053C224.731 175.672 224.131 176.155 223.434 176.448C222.566 176.744 221.654 176.887 220.737 176.871C211.791 177.18 202.706 177.488 194.045 175.237C192.388 174.814 190.434 173.877 190.434 172.175C190.434 171.569 190.697 171.032 190.731 170.392C190.926 166.519 182.653 168.793 180.528 168.918C175.797 169.192 171.066 169.375 166.336 169.501C156.669 169.764 147.002 169.752 137.347 169.615C134.295 169.471 131.236 169.598 128.206 169.992C125.829 170.392 123.521 171.135 121.19 171.718C113.508 173.672 105.515 174.083 97.6739 172.929C94.1202 172.403 89.7553 170.495 89.9838 166.907C90.1781 163.833 93.6746 162.234 96.6569 161.434C101.066 160.269 105.547 159.398 110.072 158.829C118.077 157.943 126.128 157.542 134.182 157.629C151.676 157.492 169.17 157.48 186.675 157.469C192.56 157.423 200.307 160.817 206.134 161.628Z" fill="#68E1FD"/>
<path d="M45.249 133.21L44.5177 168.93H39.6729L38.2788 140.535L35.2394 168.93L29.6861 169.855L28.4063 132.033L45.249 133.21Z" fill="#68E1FD"/>
<path d="M45.249 133.21L44.5177 168.93H39.6729L38.2788 140.535L35.2394 168.93L29.6861 169.855L28.4063 132.033L45.249 133.21Z" fill="#037171"/>
<path d="M61.0176 100.553C58.8177 104.611 56.4072 108.551 53.796 112.357C53.3076 112.915 52.7073 113.364 52.034 113.675C51.3608 113.986 50.6297 114.152 49.8882 114.162C49.2802 114.156 48.6763 114.064 48.0942 113.888C46.3688 113.465 44.6663 112.963 42.9523 112.403C42.8086 112.348 42.6708 112.279 42.5409 112.197V112.197C41.3983 111.363 41.1469 109.066 40.8955 107.741C40.7584 107.009 40.0842 104.107 41.3297 103.89C41.9582 103.776 44.0149 105.604 44.5977 105.958C45.8188 106.697 47.0774 107.372 48.3684 107.981C48.5225 108.076 48.7014 108.124 48.8826 108.118C49.0776 108.063 49.2498 107.946 49.374 107.786C51.989 104.717 54.1832 101.312 55.8985 97.6625C56.4013 97.8796 56.8926 98.1195 57.384 98.3709C58.0696 98.7289 58.7437 99.1098 59.4065 99.5135L59.6121 99.6278C60.172 99.9021 60.572 100.188 61.0176 100.553Z" fill="#037171"/>
<path d="M61.0176 100.553C58.8177 104.611 56.4072 108.551 53.796 112.357C53.3076 112.915 52.7073 113.364 52.034 113.675C51.3608 113.986 50.6297 114.152 49.8882 114.162C49.2803 114.156 48.6763 114.064 48.0942 113.888C46.3688 113.465 44.6663 112.963 42.9523 112.403C42.806 112.346 42.6646 112.277 42.5295 112.197C42.4381 112.197 42.1981 111.306 42.1639 111.191C42.048 110.818 41.9602 110.436 41.901 110.049C41.7978 109.291 41.7978 108.522 41.901 107.763C41.901 107.501 41.9696 107.306 42.2096 107.512C42.4495 107.718 42.3581 107.729 42.4609 107.821C42.5638 107.912 42.8152 108.072 42.9866 108.198C43.4665 108.54 43.9464 108.883 44.4606 109.203C45.4456 109.792 46.5015 110.252 47.6029 110.574C48.3365 110.83 49.1123 110.942 49.8882 110.906C50.4714 110.832 51.0258 110.609 51.4981 110.259C51.9703 109.908 52.3446 109.443 52.5848 108.906C52.9848 108.289 53.3733 107.649 53.7275 107.009C54.0909 106.367 54.5116 105.759 54.9844 105.193C55.9899 103.981 56.984 102.77 57.9896 101.57C58.5001 100.875 59.0656 100.221 59.6807 99.6164C60.172 99.902 60.572 100.188 61.0176 100.553Z" fill="url(#paint0_linear)"/>
<path d="M32.9998 168.37V135.256L28.4063 132.033L29.9603 168.93L32.9998 168.37Z" fill="url(#paint1_linear)"/>
<path d="M31.9942 101.605C30.7005 102.25 29.4418 102.963 28.2235 103.741C25.6297 105.398 26.0982 106.164 26.5781 109.032C27.5867 115.154 28.095 121.349 28.0978 127.554C27.9943 129.054 28.0982 130.562 28.4063 132.033C28.8255 132.886 29.1474 133.783 29.3662 134.707C33.3654 135.256 42.5067 137.312 45.2376 133.21C47.9685 129.108 43.1465 115.316 44.0264 109.123C44.9062 102.93 36.8619 102.267 36.8619 102.267L31.9942 101.605Z" fill="#00B9AE"/>
<path d="M40.1642 124.458L41.0898 119.27C41.1597 118.963 41.3261 118.686 41.5646 118.481C41.8031 118.275 42.1012 118.151 42.4152 118.127L52.3792 117.35C52.527 117.342 52.6748 117.366 52.8119 117.422C52.949 117.478 53.0719 117.564 53.1715 117.674C53.2712 117.783 53.3451 117.914 53.3879 118.055C53.4307 118.197 53.4413 118.347 53.419 118.493L49.5797 135.781C49.5285 135.998 49.4061 136.191 49.2321 136.33C49.058 136.469 48.8424 136.545 48.6198 136.547H39.4786C39.3359 136.547 39.1948 136.516 39.0652 136.456C38.9357 136.397 38.8206 136.309 38.7282 136.201C38.6358 136.092 38.5681 135.964 38.53 135.827C38.4919 135.689 38.4841 135.545 38.5074 135.404L40.1642 124.458Z" fill="#473F47"/>
<path d="M37.5018 130.262L30.2574 135.153L29.1148 133.633C28.4162 131.116 28.089 128.509 28.1435 125.897C28.3149 122.001 28.1435 123.395 28.1435 123.395L38.336 129.84L37.5018 130.262Z" fill="url(#paint2_linear)"/>
<path d="M41.1012 95.56C41.1129 95.9725 41.0899 96.3853 41.0326 96.794C40.844 97.6494 40.5076 98.4653 40.0385 99.205C39.9201 99.4624 39.7442 99.6891 39.5243 99.8678C39.0597 100.099 38.5242 100.144 38.0274 99.9935C37.9111 99.9649 37.7896 99.9649 37.6732 99.9935C37.3876 100.108 37.3533 100.496 37.3647 100.805L37.4447 102.222C37.4795 102.417 37.4473 102.618 37.3533 102.793C37.2491 102.903 37.1196 102.985 36.9762 103.033C36.4507 103.207 35.8877 103.233 35.3481 103.111C34.8084 102.988 34.3125 102.72 33.9139 102.336C33.7161 102.154 33.5534 101.937 33.434 101.696C33.3433 101.457 33.2856 101.208 33.2626 100.953C33.0912 99.5935 33.2626 98.2224 33.1369 96.8512C32.9516 95.7181 32.917 94.5654 33.0341 93.4232C33.1445 92.8176 33.4025 92.2484 33.7851 91.7662C34.1677 91.2839 34.6633 90.9033 35.2279 90.658C36.4003 90.2903 37.6611 90.3184 38.8159 90.738C39.3814 90.8954 39.9382 91.0823 40.4841 91.2979C40.7525 91.3731 40.9841 91.5438 41.1355 91.7778C41.3526 92.212 41.1355 92.8405 41.1355 93.309C41.0897 94.086 41.1012 94.8401 41.1012 95.56Z" fill="#FFBBAB"/>
<path d="M41.1126 89.9724C41.2383 90.2466 41.4211 90.4866 41.5582 90.7608C41.6392 90.8886 41.6941 91.0311 41.7196 91.1802C41.7451 91.3292 41.7407 91.4819 41.7068 91.6293C41.622 91.8617 41.4711 92.0643 41.2726 92.212C40.2748 92.9109 39.0539 93.2161 37.8446 93.069C37.4986 93.0404 37.1508 93.0404 36.8048 93.069C36.4563 93.1024 36.1317 93.2607 35.8907 93.5146C35.6184 93.9847 35.4654 94.5143 35.4451 95.0572C35.4451 95.0572 35.4451 95.1258 35.4451 95.1486C35.4451 95.1715 35.4451 95.1486 35.4451 95.1486C35.0566 95.1486 34.6909 94.7487 34.3024 94.8972C34.2168 94.9479 34.1456 95.0197 34.0956 95.1057C34.0456 95.1917 34.0185 95.2891 34.0167 95.3886C33.9826 95.626 34.0183 95.8682 34.1196 96.0856C34.1649 96.1705 34.1921 96.2639 34.1996 96.3598C34.21 96.4203 34.21 96.4822 34.1996 96.5427L33.9596 97.2168C33.8993 97.4706 33.7439 97.6915 33.5254 97.8339C33.3705 97.881 33.2065 97.89 33.0473 97.8602C32.8882 97.8304 32.7386 97.7625 32.6113 97.6625C32.4126 97.5632 32.2404 97.4183 32.1085 97.2397C32.0174 97.0929 31.9553 96.93 31.9257 96.7598C31.598 95.0703 31.4638 93.3491 31.5258 91.6293C31.5024 91.2415 31.5568 90.853 31.6857 90.4866C31.9004 90.1344 32.1937 89.8366 32.5425 89.6166C32.8914 89.3966 33.2865 89.2602 33.6968 89.2183C35.2042 88.9458 36.7364 88.8347 38.2674 88.8869C38.7454 88.8657 39.2243 88.8964 39.6957 88.9783C40.1664 89.0762 40.5943 89.3202 40.9184 89.6753" fill="#963637"/>
<path d="M38.7473 97.1254C38.5045 97.2494 38.314 97.4561 38.2103 97.7082C38.2103 97.7082 38.2103 97.7767 38.2103 97.7996C38.2103 97.8224 38.2103 97.7996 38.2903 97.7996C38.8115 97.8338 39.3345 97.8338 39.8557 97.7996C40.2526 97.7777 40.6411 97.6767 40.9984 97.5025C41.0244 97.5104 41.0523 97.5104 41.0783 97.5025C41.0846 97.4762 41.0846 97.4488 41.0783 97.4225C41.0726 97.3183 41.046 97.2164 41 97.1227C40.9541 97.0291 40.8897 96.9456 40.8108 96.8774C40.7319 96.8091 40.64 96.7575 40.5407 96.7255C40.4414 96.6935 40.3367 96.6818 40.2328 96.6912C39.711 96.7208 39.2029 96.8693 38.7473 97.1254V97.1254Z" fill="#963637"/>
<path d="M33.2626 100.953C33.2626 100.953 32.1199 101.73 32.1199 102.576C32.1199 103.421 38.1646 120.344 38.1646 120.344C38.1646 120.344 38.3017 104.141 38.1646 103.387C37.9595 102.655 37.688 101.944 37.3533 101.262C37.3533 101.262 35.0337 102.999 33.2626 100.953Z" fill="white"/>
<path d="M35.2394 102.484L34.828 103.798L35.5136 104.358L35.8336 113.557L38.2217 120.344L38.2788 113.442L36.2335 104.324L36.9762 103.033L35.9935 102.484H35.2394Z" fill="#212741"/>
<path d="M39.6729 126.389C38.9647 127.286 38.16 128.102 37.2733 128.823L36.7248 129.257C36.5266 129.435 36.2801 129.55 36.0164 129.588C35.834 129.586 35.6544 129.543 35.4908 129.462C31.9943 128.107 28.5663 126.583 25.2069 124.892C23.8129 124.172 22.2703 123.235 21.9732 121.692C21.8875 121.155 21.8875 120.607 21.9732 120.07C22.4987 116.148 23.5201 112.308 25.0126 108.643C25.4354 107.615 25.9611 105.627 27.058 104.953H27.1837L27.3437 104.873C28.8291 104.336 30.1203 105.821 30.5317 107.078C30.9947 108.909 30.9354 110.833 30.3603 112.631C29.7897 114.414 29.3655 116.241 29.0919 118.093C29.0461 118.35 29.0698 118.614 29.1605 118.859C29.2993 119.095 29.4959 119.291 29.7318 119.43L39.6729 126.389Z" fill="#037171"/>
<path d="M39.6729 168.93L39.9357 171.558L41.5925 171.866L42.3352 171.215L43.6036 172.22H48.5741C48.5741 172.22 49.8425 170.038 47.0887 169.295L44.3463 168.553L39.6729 168.93Z" fill="#212741"/>
<path d="M29.9603 168.93L30.2231 171.558L31.88 171.866L32.6227 171.215L33.8796 172.22H38.8616C38.8616 172.22 40.1185 170.038 37.3761 169.295L34.6223 168.553L29.9603 168.93Z" fill="#212741"/>
<path d="M38.2788 140.535L40.507 138.729L42.0724 168.553L39.6729 168.93L38.2788 140.535Z" fill="url(#paint3_linear)"/>
<path d="M37.319 128.823L36.7705 129.257C36.5723 129.435 36.3258 129.55 36.0621 129.588C35.8797 129.586 35.7001 129.543 35.5365 129.462C32.04 128.107 28.612 126.583 25.2526 124.892C23.8586 124.172 22.316 123.235 22.0189 121.692C21.9332 121.155 21.9332 120.607 22.0189 120.07C22.5445 116.148 23.5658 112.308 25.0584 108.643C25.4811 107.615 26.0068 105.627 27.1037 104.953H27.2294L27.3894 104.873C28.0842 104.862 28.765 105.069 29.3365 105.465C29.908 105.86 30.3418 106.424 30.5774 107.078C30.5774 107.078 25.2869 117.91 25.5154 119.544C25.744 121.178 36.8505 126.48 36.8505 126.48L37.319 128.823Z" fill="url(#paint4_linear)"/>
<path d="M42.1638 127.303C42.4526 127.371 42.7222 127.504 42.9523 127.691C43.0672 127.786 43.1529 127.912 43.1994 128.053C43.2459 128.195 43.2514 128.347 43.2151 128.491C43.1299 128.662 43.0265 128.823 42.9066 128.971C42.7695 129.222 42.7466 129.542 42.6095 129.805C42.4821 130.008 42.3153 130.183 42.1191 130.321C41.9228 130.458 41.701 130.555 41.4668 130.605C40.8236 130.895 40.1162 131.014 39.4134 130.95C38.7106 130.886 38.0363 130.641 37.4561 130.239C36.6791 129.565 35.1708 126.812 36.8391 126.412C37.5704 126.368 38.3038 126.446 39.0101 126.64C40.078 126.773 41.1329 126.994 42.1638 127.303V127.303Z" fill="#FFBBAB"/>
<path d="M185.167 146.751H136.33L144.98 122.389H177.877L185.167 146.751Z" fill="#68E1FD"/>
<path d="M185.167 146.751H136.33L144.98 122.389H177.877L185.167 146.751Z" fill="url(#paint5_linear)"/>
<path d="M226.097 33.9139H99.5364C94.6961 33.9139 90.7723 37.8377 90.7723 42.678V122.767C90.7723 127.607 94.6961 131.531 99.5364 131.531H226.097C230.937 131.531 234.861 127.607 234.861 122.767V42.678C234.861 37.8377 230.937 33.9139 226.097 33.9139Z" fill="#68E1FD"/>
<path d="M209.859 116.939C209.842 117.087 209.872 117.237 209.946 117.367C210.02 117.496 210.134 117.599 210.271 117.659C210.551 117.765 210.852 117.804 211.151 117.773H212.43C212.561 117.763 212.692 117.791 212.807 117.853C212.875 117.922 212.926 118.005 212.958 118.095C212.989 118.186 213.001 118.283 212.99 118.379L213.127 123.818C213.252 125.059 213.08 126.312 212.625 127.474C212.35 128.034 211.939 128.514 211.653 129.063C211.488 129.325 211.38 129.62 211.339 129.928C211.298 130.235 211.323 130.548 211.413 130.845C213.584 130.936 215.756 130.936 217.915 130.845C218.325 130.878 218.733 130.755 219.058 130.502C219.204 130.334 219.31 130.135 219.366 129.92C220.006 128.111 220.533 126.263 220.943 124.389C221.373 122.613 221.576 120.789 221.549 118.961C221.513 117.124 220.997 115.327 220.052 113.751C219.828 113.354 219.524 113.008 219.161 112.734C218.783 112.496 218.365 112.329 217.927 112.243C215.761 111.747 213.554 111.456 211.333 111.374C210.597 111.246 209.838 111.363 209.174 111.706C208.857 111.943 208.608 112.258 208.449 112.621C208.291 112.983 208.23 113.38 208.271 113.774C208.359 114.568 208.583 115.341 208.934 116.059" fill="url(#paint6_linear)"/>
<path d="M103.113 125.76C104.484 121.251 106.042 116.798 107.786 112.403C107.863 112.224 107.995 112.076 108.163 111.98C108.352 111.911 108.558 111.911 108.746 111.98L112.551 112.517C112.306 114.652 111.671 116.724 110.677 118.63C109.201 122.129 108.12 125.781 107.455 129.52C107.423 129.895 107.306 130.259 107.112 130.582C106.707 131.057 106.134 131.356 105.512 131.416C103.65 131.805 102.439 132.376 102.085 130.479C101.856 129.028 102.724 127.04 103.113 125.76Z" fill="url(#paint7_linear)"/>
<path d="M120.927 126.937H125.018C125.299 126.9 125.584 126.97 125.817 127.131C126.012 127.303 126.057 127.577 126.217 127.794C126.549 128.251 127.211 128.24 127.771 128.183C129.731 127.962 131.668 127.58 133.565 127.04L132.833 122.058C129.364 122.827 125.816 123.176 122.264 123.098L122.069 117.099H127.463C127.6 117.127 127.742 117.119 127.876 117.077C128.009 117.035 128.13 116.959 128.226 116.858C128.322 116.756 128.39 116.631 128.425 116.495C128.459 116.36 128.459 116.217 128.423 116.082C128.432 115.349 128.39 114.616 128.297 113.888C128.295 113.716 128.225 113.552 128.103 113.431C127.95 113.345 127.77 113.32 127.6 113.362C123.491 113.909 119.34 114.062 115.202 113.82C114.972 119.947 113.856 126.009 111.888 131.816C114.082 131.576 116.688 131.953 118.802 131.474C119.807 131.245 119.761 131.142 120.081 130.057C120.173 129.725 120.801 126.949 120.927 126.937Z" fill="url(#paint8_linear)"/>
<path d="M234.849 42.678V112.917H90.7608V42.678C90.7639 40.3546 91.6882 38.1271 93.3311 36.4842C94.9741 34.8413 97.2015 33.9169 99.525 33.9139H226.085C228.409 33.9169 230.636 34.8413 232.279 36.4842C233.922 38.1271 234.846 40.3546 234.849 42.678V42.678Z" fill="#037171"/>
<path d="M215.013 108.998C213.414 110.269 211.564 111.188 209.585 111.694C209.462 111.699 209.34 111.729 209.228 111.782C209.116 111.835 209.016 111.91 208.934 112.003C208.859 112.198 208.859 112.413 208.934 112.608C209.234 114.034 209.662 115.43 210.214 116.779C213.133 116.398 215.939 115.41 218.452 113.877C218.867 113.655 219.226 113.342 219.503 112.963C219.72 112.517 219.837 112.03 219.846 111.534C219.949 110.174 220.143 108.243 219.343 107.044C218.704 106.107 218.361 106.724 217.515 107.306L215.013 108.998Z" fill="#68E1FD"/>
<path d="M216.041 108.769C214.443 110.042 212.593 110.961 210.614 111.466C210.487 111.469 210.362 111.5 210.248 111.555C210.134 111.61 210.033 111.689 209.951 111.786C209.876 111.977 209.876 112.189 209.951 112.38C210.247 113.806 210.671 115.201 211.219 116.55C214.142 116.17 216.952 115.181 219.469 113.648C219.883 113.43 220.239 113.116 220.509 112.734C220.737 112.293 220.855 111.803 220.852 111.306C220.955 109.957 221.16 108.015 220.349 106.827C219.721 105.89 219.366 106.495 218.521 107.078L216.041 108.769Z" fill="url(#paint9_linear)"/>
<path d="M232.712 44.3577V110.632H92.9319V44.3577C92.9379 43.2473 93.1625 42.149 93.593 41.1254C94.0235 40.1018 94.6513 39.173 95.4408 38.3921C96.2302 37.6111 97.1657 36.9933 98.1939 36.5739C99.2221 36.1546 100.323 35.9418 101.433 35.9478H224.177C225.29 35.9373 226.395 36.1467 227.427 36.564C228.459 36.9814 229.398 37.5985 230.191 38.3799C230.985 39.1612 231.615 40.0916 232.048 41.1174C232.481 42.1432 232.707 43.2444 232.712 44.3577V44.3577Z" fill="white"/>
<path opacity="0.18" d="M232.712 44.3577V110.632H92.9319V44.3577C92.9379 43.2473 93.1625 42.149 93.593 41.1254C94.0235 40.1018 94.6513 39.173 95.4408 38.3921C96.2302 37.6111 97.1657 36.9933 98.1939 36.5739C99.2221 36.1546 100.323 35.9418 101.433 35.9478H224.177C225.29 35.9373 226.395 36.1467 227.427 36.564C228.459 36.9814 229.398 37.5985 230.191 38.3799C230.985 39.1612 231.615 40.0916 232.048 41.1174C232.481 42.1432 232.707 43.2444 232.712 44.3577V44.3577Z" fill="#00B9AE"/>
<path opacity="0.18" d="M151.047 44.6206H105.021V86.8987H151.047V44.6206Z" fill="#00B9AE"/>
<path d="M203.426 149.996C202.739 150.683 202.195 151.499 201.824 152.397C201.453 153.295 201.264 154.258 201.267 155.229C201.262 156.257 201.476 157.273 201.895 158.212C202.341 159.228 203.01 160.131 203.853 160.853C204.695 161.575 205.69 162.098 206.763 162.382V164.073H117.636C115.778 164.076 113.968 163.491 112.462 162.404C110.956 161.316 109.831 159.781 109.249 158.017C108.946 157.119 108.791 156.177 108.792 155.229C108.79 154.067 109.018 152.917 109.462 151.843C109.906 150.769 110.557 149.794 111.379 148.972C112.2 148.151 113.176 147.499 114.25 147.055C115.323 146.611 116.474 146.384 117.636 146.385H206.763V148.076C205.503 148.416 204.353 149.077 203.426 149.996V149.996Z" fill="#00B9AE"/>
<path d="M206.763 162.382V164.073H117.636C115.778 164.076 113.968 163.491 112.462 162.404C110.956 161.316 109.831 159.781 109.249 158.017C112.677 158.611 134.056 162.028 145.985 155.229L201.861 158.212C202.31 159.232 202.984 160.137 203.833 160.859C204.682 161.582 205.684 162.102 206.763 162.382V162.382Z" fill="#037171"/>
<path d="M120.15 169.021C122.675 169.158 125.383 169.272 127.543 167.947C127.697 167.864 127.83 167.747 127.931 167.604C127.982 167.488 128.003 167.361 127.991 167.235C127.979 167.109 127.935 166.989 127.863 166.884C127.711 166.679 127.51 166.514 127.28 166.404C126.471 166.014 125.602 165.763 124.709 165.662C123.566 165.467 122.527 165.285 121.43 165.17C120.721 165.102 119.521 164.816 118.95 165.387C118.776 165.652 118.661 165.952 118.614 166.266C118.566 166.579 118.587 166.9 118.676 167.204C118.813 168.233 119.007 168.952 120.15 169.021Z" fill="white"/>
<path d="M103.41 166.164C105.398 167.73 107.569 169.352 110.095 169.501C110.265 169.525 110.439 169.501 110.597 169.432C110.708 169.369 110.8 169.277 110.864 169.167C110.928 169.057 110.962 168.931 110.963 168.804C110.953 168.547 110.882 168.297 110.757 168.073C110.304 167.3 109.734 166.602 109.066 166.004C108.278 165.227 107.489 164.45 106.644 163.719C106.107 163.262 105.284 162.337 104.496 162.485C103.707 162.634 103.49 163.308 103.227 163.822C102.759 164.748 102.507 165.456 103.41 166.164Z" fill="white"/>
<path d="M203.426 149.996C202.508 150.916 201.848 152.062 201.513 153.318C201.177 154.575 201.179 155.897 201.517 157.153C201.855 158.408 202.518 159.553 203.439 160.471C204.36 161.389 205.506 162.048 206.763 162.382V162.634H153.424C151.454 162.634 149.565 161.851 148.172 160.458C146.779 159.065 145.997 157.176 145.997 155.206C145.997 153.237 146.779 151.347 148.172 149.955C149.565 148.562 151.454 147.779 153.424 147.779H206.763V148.019C205.497 148.375 204.346 149.057 203.426 149.996V149.996Z" fill="white"/>
<path d="M44.2892 118.333L44.552 117.465C44.5758 117.386 44.622 117.316 44.6849 117.263C44.7478 117.211 44.8247 117.177 44.9062 117.168L50.1738 116.779C50.2185 116.774 50.2637 116.781 50.305 116.798C50.3464 116.816 50.3826 116.844 50.4101 116.879C50.4376 116.915 50.4555 116.957 50.4622 117.001C50.4688 117.046 50.464 117.091 50.4481 117.133L50.1281 118.082C50.0965 118.177 50.0371 118.26 49.9577 118.321C49.8783 118.382 49.7825 118.418 49.6825 118.424L44.6091 118.733C44.5587 118.737 44.508 118.729 44.4615 118.709C44.415 118.689 44.3742 118.658 44.3426 118.618C44.311 118.579 44.2896 118.532 44.2803 118.482C44.271 118.433 44.274 118.381 44.2892 118.333V118.333Z" fill="white"/>
<path d="M64.994 95.9028C64.6111 96.5873 64.0348 97.1438 63.3372 97.5025C62.6833 97.8082 62.0072 98.0641 61.3147 98.2681C60.6148 98.4513 59.9909 98.8513 59.5322 99.4107L59.4522 99.5135C58.7894 99.1174 58.1153 98.7365 57.4297 98.3709C57.5211 98.1881 57.6925 97.971 57.761 97.8338C57.9096 97.5025 58.0239 97.1597 58.161 96.8283C58.6567 95.6762 59.484 94.6977 60.5377 94.0174C60.6177 94.0174 60.7205 93.9145 60.8005 94.0174C60.8119 94.0425 60.8177 94.0698 60.8177 94.0974C60.8177 94.125 60.8119 94.1522 60.8005 94.1774C60.7919 94.6639 60.6581 95.1401 60.412 95.56L64.5484 94.0745C64.6504 94.022 64.7661 94.002 64.8798 94.0174C64.9461 94.0433 65.0059 94.0832 65.0553 94.1345C65.1046 94.1858 65.1422 94.2472 65.1654 94.3145C65.2511 94.5762 65.2801 94.8532 65.2506 95.1271C65.221 95.4009 65.1336 95.6653 64.994 95.9028Z" fill="#FFBBAB"/>
<path d="M123.155 163.296V165.81C121.639 165.994 120.109 166.036 118.584 165.936C118.514 165.949 118.442 165.946 118.374 165.926C118.306 165.906 118.243 165.87 118.192 165.82C118.14 165.771 118.101 165.71 118.078 165.643C118.055 165.576 118.048 165.504 118.059 165.433C117.739 161.262 118.264 157.057 117.785 152.921C117.709 152.051 117.509 151.197 117.19 150.384C116.8 149.575 116.325 148.809 115.773 148.099C114.174 145.894 112.749 143.567 111.511 141.14C110.327 138.676 109.781 135.953 109.923 133.222C109.923 130.491 111.363 129.314 114.025 130.022C114.435 130.089 114.825 130.245 115.168 130.479C115.439 130.723 115.663 131.013 115.831 131.336C117.438 133.951 118.862 136.673 120.093 139.484C123.018 146.968 123.258 155.206 123.155 163.296Z" fill="#473F47"/>
<path d="M123.155 163.296V165.81C121.639 165.994 120.109 166.036 118.584 165.936C118.514 165.949 118.442 165.946 118.374 165.926C118.306 165.906 118.243 165.87 118.192 165.82C118.14 165.771 118.101 165.71 118.078 165.643C118.055 165.576 118.048 165.504 118.059 165.433C117.739 161.262 118.264 157.057 117.785 152.921C117.709 152.051 117.509 151.197 117.19 150.384C116.8 149.575 116.325 148.809 115.773 148.099C114.174 145.894 112.749 143.567 111.511 141.14C110.327 138.676 109.781 135.953 109.923 133.222C109.923 130.491 111.363 129.314 114.025 130.022C114.435 130.089 114.825 130.245 115.168 130.479C115.439 130.723 115.663 131.013 115.831 131.336C117.438 133.951 118.862 136.673 120.093 139.484C123.018 146.968 123.258 155.206 123.155 163.296Z" fill="url(#paint10_linear)"/>
<path d="M124.606 115.202C130.032 113.689 134.696 110.2 137.678 105.421C137.959 105.073 138.155 104.666 138.252 104.23C138.349 103.794 138.344 103.341 138.238 102.907C138.225 102.854 138.201 102.804 138.168 102.761C138.134 102.717 138.092 102.682 138.044 102.656C137.895 102.587 137.724 102.656 137.575 102.782L130.537 107.352C128.655 108.731 126.559 109.789 124.332 110.483C123.989 111.168 123.747 111.9 123.612 112.654C123.631 113.594 123.983 114.498 124.606 115.202V115.202Z" fill="#FFBBAB"/>
<path d="M209.768 60.3777H127.2V126.914H209.768V60.3777Z" fill="white"/>
<path opacity="0.16" d="M138.832 125.589C138.453 125.847 138.019 126.011 137.564 126.069C134.557 126.672 131.483 126.872 128.423 126.663C128.122 126.679 127.825 126.594 127.577 126.423C127.329 126.157 127.194 125.804 127.2 125.44C127.118 124.499 127.179 123.552 127.383 122.629C127.383 122.504 134.856 122.515 135.564 122.629C136.558 122.789 140.592 124.172 138.832 125.589Z" fill="#68E1FD"/>
<path opacity="0.16" d="M202.889 99.3079C202.781 99.9048 202.781 100.516 202.889 101.113C203.134 101.954 203.555 102.733 204.123 103.399C206.386 106.542 208.162 110.009 209.391 113.682C209.849 111.656 210.022 109.575 209.905 107.501C209.926 106.773 209.873 106.046 209.745 105.33C209.468 104.343 209.085 103.389 208.603 102.484C207.936 101.021 207.434 99.488 207.106 97.9138C206.877 96.7712 206.489 94.0288 204.752 94.2116C203.255 94.4516 203.004 98.1995 202.889 99.3079Z" fill="#68E1FD"/>
<path d="M104.735 135.519C105.408 138.136 106.346 140.678 107.535 143.106C108.518 145.174 110.792 147.825 110.78 150.156C110.78 154.361 106.358 159.971 103.639 162.851C105.073 163.797 106.606 164.586 108.209 165.205C108.559 165.39 108.964 165.447 109.352 165.365C109.776 165.178 110.112 164.834 110.289 164.405L113.248 159.274C114.894 156.418 116.596 153.401 116.733 150.133C116.741 148.936 116.657 147.741 116.482 146.557C116.173 144.031 116.482 141.175 115.853 138.718C115.294 136.433 114.562 134.262 114.048 131.988C113.92 130.813 113.377 129.724 112.517 128.914C112.11 128.641 111.657 128.444 111.18 128.331C108.895 127.68 106.381 127.6 105.124 129.988C104.352 131.729 104.214 133.686 104.735 135.519V135.519Z" fill="#473F47"/>
<path d="M125.303 110.734C126.56 111.191 125.383 114.162 125.052 114.996C125.034 115.106 124.993 115.21 124.931 115.302C124.87 115.393 124.789 115.471 124.694 115.528C124.6 115.586 124.494 115.622 124.384 115.635C124.274 115.648 124.163 115.637 124.058 115.602C122.172 115.431 120.287 115.202 118.413 114.928C118.013 114.89 117.625 114.774 117.27 114.585C117.049 114.427 116.861 114.227 116.717 113.995C116.574 113.764 116.479 113.506 116.436 113.237C116.265 112.357 116.173 110.254 116.939 109.58C117.487 109.089 118.596 109.443 119.316 109.512C121.354 109.674 123.365 110.085 125.303 110.734V110.734Z" fill="white"/>
<path d="M124.903 111.98C126.16 112.437 124.983 115.408 124.64 116.242C124.587 116.456 124.462 116.645 124.286 116.779C124.09 116.87 123.869 116.894 123.658 116.848C121.761 116.676 119.887 116.448 118.013 116.185C117.594 116.145 117.187 116.025 116.813 115.831C116.593 115.673 116.406 115.472 116.265 115.24C116.124 115.008 116.03 114.751 115.991 114.482C115.808 113.602 115.728 111.5 116.493 110.826C117.042 110.346 118.139 110.689 118.87 110.757C120.923 110.917 122.95 111.328 124.903 111.98Z" fill="url(#paint11_linear)"/>
<path d="M121.635 99.9135C121.864 100.291 122.309 100.508 122.458 100.908C122.607 101.308 122.298 101.913 122.115 102.404C121.875 103.09 121.955 103.867 121.715 104.553C121.67 104.704 121.583 104.838 121.464 104.941C121.354 105.016 121.229 105.066 121.098 105.09C120.587 105.194 120.064 105.225 119.544 105.181C119.448 105.146 119.343 105.146 119.247 105.181C119.169 105.248 119.12 105.342 119.11 105.444C118.79 106.746 118.79 108.107 119.11 109.409C119.224 109.832 119.35 110.357 119.03 110.666C118.917 110.766 118.779 110.833 118.63 110.86C118.124 110.906 117.615 110.815 117.156 110.596C116.698 110.377 116.307 110.038 116.025 109.615C115.426 108.916 114.912 108.149 114.494 107.329C114.368 107.105 114.279 106.862 114.231 106.609C114.219 106.28 114.266 105.951 114.368 105.638C114.653 104.558 114.825 103.451 114.882 102.336C114.821 100.912 114.995 99.4873 115.396 98.1195C115.556 97.6553 115.86 97.2546 116.265 96.9769C116.742 96.7532 117.273 96.6699 117.796 96.7369C118.841 96.6634 119.874 96.9995 120.675 97.6739C120.938 97.9824 121.361 99.4107 121.635 99.9135Z" fill="#FFBBAB"/>
<path d="M121.212 96.5312C121.635 96.4512 121.944 97.0226 121.784 97.4111C121.679 97.6003 121.53 97.7608 121.348 97.8784C121.167 97.996 120.959 98.067 120.744 98.0852C120.318 98.1229 119.895 98.184 119.476 98.2681C119.265 98.3194 119.077 98.4351 118.935 98.599C118.794 98.7628 118.707 98.9667 118.687 99.1822C118.453 99.1489 118.214 99.2025 118.016 99.333C117.818 99.4635 117.675 99.6618 117.613 99.8906C117.494 100.351 117.494 100.835 117.613 101.296C117.476 101.445 117.236 101.296 117.11 101.193C116.985 101.09 116.905 100.862 116.745 100.759C116.379 100.565 115.945 101.022 115.991 101.433C116.097 101.834 116.334 102.188 116.665 102.439C116.744 102.498 116.807 102.577 116.848 102.667C116.962 103.01 116.505 103.25 116.151 103.33C116.179 103.596 116.148 103.866 116.059 104.118C116.017 104.246 115.936 104.358 115.827 104.437C115.719 104.517 115.588 104.561 115.454 104.564C115.214 104.564 115.019 104.37 114.802 104.278C114.585 104.187 114.242 104.278 114.219 104.484C113.854 103.719 114.219 102.999 114.082 102.199C113.945 101.399 113.351 101.776 112.94 101.33C112.723 101.079 112.734 100.702 112.631 100.382C112.528 100.062 112.163 99.6392 112.071 99.2393C111.911 98.5309 112.505 97.891 113.043 97.4111C112.986 97.2781 112.972 97.1308 113.003 96.9895C113.033 96.8483 113.107 96.7201 113.214 96.6226C113.437 96.442 113.706 96.3273 113.991 96.2913C114.065 96.2818 114.136 96.2543 114.197 96.2113C114.288 96.1199 114.265 95.9713 114.197 95.8456C114.025 93.686 117.545 94.2802 118.836 94.3945C119.376 94.4432 119.897 94.6195 120.356 94.9087C120.618 95.0458 121.692 96.4398 121.212 96.5312Z" fill="#473F47"/>
<path d="M114.379 106.792H114.459C116.345 107.261 119.087 108.975 119.704 110.883C120.605 113.483 120.856 116.265 120.436 118.984C120.047 120.71 118.996 122.207 118.562 123.886C118.25 125.747 117.807 127.584 117.236 129.382C116.968 130.212 116.439 130.934 115.728 131.439C115.082 131.757 114.368 131.914 113.648 131.896C111.534 132.011 108.563 132.73 106.792 131.279C106.154 130.682 105.661 129.945 105.352 129.127C105.043 128.309 104.926 127.431 105.01 126.56C105.193 124.82 105.648 123.12 106.358 121.521L109.295 113.865C110.026 112.048 111.74 106.267 114.379 106.792Z" fill="white"/>
<path d="M112.837 125.692C112.999 125.966 113.107 126.268 113.157 126.583C113.156 126.812 113.122 127.039 113.054 127.257C112.751 128.502 112.624 129.782 112.677 131.062C112.664 131.176 112.675 131.292 112.708 131.402C112.741 131.512 112.797 131.614 112.871 131.702C113.036 131.823 113.238 131.884 113.442 131.873C114.176 131.999 114.93 131.924 115.625 131.656C116.378 131.195 116.944 130.483 117.225 129.645C118.157 127.317 118.868 124.907 119.35 122.447C119.473 122.052 119.512 121.635 119.464 121.224C119.382 120.916 119.238 120.628 119.042 120.376C118.845 120.125 118.6 119.916 118.322 119.761C117.807 119.407 117.179 119.156 116.733 118.779C115.762 118.025 115.042 116.676 113.717 116.493C113.257 116.457 112.799 116.583 112.423 116.851C112.047 117.118 111.777 117.509 111.66 117.956C110.86 120.241 111.763 123.521 112.837 125.692Z" fill="url(#paint12_linear)"/>
<path d="M116.025 112.38C116.025 112.38 118.71 119.658 119.247 120.196C119.784 120.733 114.06 123.943 114.06 123.943C114.06 123.943 110.334 116.87 110.517 113.797C110.7 110.723 113.877 109.489 116.025 112.38Z" fill="white"/>
<path d="M114.06 122.961C114.111 123.313 114.232 123.651 114.414 123.956C114.597 124.262 114.838 124.528 115.123 124.74C115.408 124.952 115.733 125.106 116.078 125.193C116.423 125.28 116.781 125.298 117.133 125.246L122.001 125.178C124.286 125.178 126.48 125.075 128.72 125.086C129.267 125.161 129.804 125.299 130.319 125.497C131.017 125.653 131.734 125.696 132.445 125.623C133.846 125.474 135.159 124.868 136.181 123.898C136.526 123.64 136.785 123.283 136.922 122.875C137.058 122.466 137.067 122.026 136.947 121.612C136.9 121.503 136.82 121.411 136.718 121.35C136.628 121.332 136.535 121.332 136.444 121.35C135.107 121.579 133.739 121.556 132.41 121.281C132.52 121.111 132.576 120.912 132.57 120.71C132.57 120.515 132.365 120.321 132.171 120.367C132.068 120.402 131.977 120.465 131.908 120.55C131.582 120.917 131.174 121.202 130.718 121.383C130.261 121.564 129.769 121.634 129.28 121.59C125.589 121.418 121.955 120.63 118.264 120.447C117.402 120.356 116.531 120.446 115.705 120.71C115.271 120.926 114.895 121.244 114.609 121.635C114.323 122.027 114.134 122.481 114.06 122.961V122.961Z" fill="#FFBBAB"/>
<path d="M214.51 105.535C213.605 105.942 212.778 106.502 212.065 107.192C211.697 107.53 211.406 107.942 211.209 108.401C211.012 108.86 210.914 109.355 210.922 109.855C211.138 111.047 211.805 112.111 212.785 112.825C213.813 113.728 215.07 114.677 215.15 116.059C215.893 115.511 216.567 114.917 217.321 114.345C218.719 113.535 220.183 112.843 221.697 112.277C223.226 111.7 224.507 110.609 225.32 109.192C225.693 108.275 225.91 107.301 225.959 106.312C226.106 105.252 226.133 104.179 226.039 103.113C225.937 102.041 225.469 101.036 224.714 100.268C223.556 99.3799 222.192 98.8018 220.749 98.588C219.936 98.6244 219.15 98.8922 218.484 99.3597C217.819 99.8273 217.3 100.475 216.99 101.228C216.693 102.027 216.83 102.942 216.533 103.73C216.112 104.567 215.389 105.212 214.51 105.535V105.535Z" fill="#FC682D"/>
<path d="M201.861 170.358C201.573 170.386 201.292 170.459 201.027 170.575C200.898 170.639 200.788 170.736 200.71 170.857C200.631 170.977 200.587 171.117 200.581 171.261C200.608 171.401 200.669 171.533 200.759 171.644C200.849 171.756 200.964 171.844 201.095 171.901C201.347 172.026 201.632 172.083 201.884 172.22C202.097 172.366 202.323 172.492 202.558 172.598C202.977 172.677 203.411 172.617 203.792 172.426C205.583 171.798 207.47 171.488 209.368 171.512C209.55 171.535 209.734 171.535 209.917 171.512C210.193 171.418 210.439 171.251 210.63 171.031C210.82 170.81 210.949 170.542 211.002 170.255C211.265 169.077 211.265 167.856 211.002 166.679C210.982 166.545 210.936 166.417 210.865 166.302C210.781 166.213 210.674 166.15 210.556 166.119C208.694 165.41 207.894 167.261 206.671 168.267C205.283 169.381 203.622 170.103 201.861 170.358V170.358Z" fill="#FFBBAB"/>
<path d="M208.065 170.415H207.7C206.861 170.507 206.017 170.53 205.175 170.484C205.015 170.485 204.858 170.446 204.718 170.369C204.628 170.297 204.556 170.204 204.509 170.099C204.461 169.994 204.439 169.879 204.443 169.764C204.466 169.536 204.466 169.306 204.443 169.078C204.432 169.031 204.408 168.988 204.375 168.952C204.334 168.941 204.29 168.941 204.249 168.952C203.603 168.971 202.971 169.147 202.409 169.467C201.251 169.928 200.257 170.723 199.553 171.752C199.49 171.839 199.454 171.942 199.45 172.049C199.455 172.142 199.491 172.231 199.553 172.3C200.307 173.443 202.192 173.192 203.346 172.952C204.5 172.712 205.86 172.186 207.163 171.981C208.465 171.775 210.134 171.866 211.368 171.112C211.57 171.003 211.74 170.841 211.859 170.644C211.971 170.295 211.983 169.922 211.894 169.566C211.806 169.211 211.619 168.888 211.356 168.633C211.316 168.572 211.255 168.527 211.185 168.507C211.092 168.495 210.998 168.52 210.922 168.575C210.339 168.941 209.951 169.581 209.357 169.947C208.965 170.194 208.525 170.354 208.065 170.415V170.415Z" fill="#037171"/>
<path d="M220.84 122.687C220.84 122.687 226.656 126.023 225.034 132.113C223.606 137.438 219.515 140.752 216.898 145.3C215.447 147.813 215.756 151.938 215.104 154.875C214.348 158.473 213.313 162.007 212.008 165.445C211.733 166.13 211.311 166.941 210.568 166.964C210.222 166.917 209.879 166.852 209.539 166.77C209.209 166.804 208.876 166.804 208.545 166.77C207.7 166.576 207.7 165.376 207.894 164.485C208.821 160.403 209.379 156.246 209.562 152.064C209.699 148.842 208.831 145.425 209.745 142.294C210.465 139.826 214.784 126.572 214.784 126.572L220.84 122.687Z" fill="#68E1FD"/>
<path d="M220.84 122.687C220.84 122.687 226.656 126.023 225.034 132.113C223.606 137.438 219.515 140.752 216.898 145.3C215.447 147.813 215.756 151.938 215.104 154.875C214.348 158.473 213.313 162.007 212.008 165.445C211.733 166.13 211.311 166.941 210.568 166.964C210.222 166.917 209.879 166.852 209.539 166.77C209.209 166.804 208.876 166.804 208.545 166.77C207.7 166.576 207.7 165.376 207.894 164.485C208.821 160.403 209.379 156.246 209.562 152.064C209.699 148.842 208.831 145.425 209.745 142.294C210.465 139.826 214.784 126.572 214.784 126.572L220.84 122.687Z" fill="#037171"/>
<path d="M214.133 173.58C213.86 173.673 213.605 173.813 213.379 173.992C213.266 174.083 213.181 174.204 213.135 174.342C213.088 174.48 213.082 174.627 213.116 174.769C213.175 174.898 213.266 175.011 213.379 175.097C213.493 175.183 213.626 175.239 213.767 175.26C214.042 175.317 214.327 175.26 214.601 175.374C214.852 175.459 215.108 175.527 215.367 175.58C215.789 175.546 216.19 175.378 216.51 175.1C218.088 174.042 219.84 173.268 221.686 172.815C221.867 172.777 222.043 172.719 222.212 172.643C222.434 172.476 222.612 172.256 222.728 172.002C222.843 171.749 222.894 171.47 222.874 171.192C222.83 169.994 222.513 168.822 221.949 167.764C221.904 167.638 221.83 167.524 221.732 167.433C221.628 167.37 221.51 167.334 221.389 167.33C219.401 167.113 219.104 169.112 218.167 170.381C217.121 171.778 215.731 172.88 214.133 173.58Z" fill="#FFBBAB"/>
<path d="M220.143 126.834C221.68 127.058 223.109 127.753 224.234 128.823C226.668 130.891 226.519 135.119 225.674 138.215C225.24 139.838 222.657 144.945 222.246 146.397C221.526 149.139 222.966 152.544 223.091 155.321C223.252 158.997 223.125 162.679 222.714 166.336C222.634 167.067 222.417 167.947 221.709 168.164C221.366 168.255 221 168.164 220.657 168.233C220.352 168.357 220.034 168.449 219.709 168.507C218.841 168.507 218.566 167.364 218.566 166.507C218.441 162.32 217.948 158.153 217.092 154.052C216.43 150.899 214.727 147.802 214.807 144.545L215.047 136.547C215.138 133.599 214.727 130.617 215.63 127.783C215.703 127.439 215.888 127.13 216.155 126.903C216.411 126.752 216.704 126.673 217.001 126.674C217.876 126.606 218.754 126.606 219.629 126.674L220.143 126.834Z" fill="#00B9AE"/>
<path d="M215.938 96.9883C215.721 97.3539 215.264 97.571 215.116 97.9824C214.967 98.3938 215.287 98.9879 215.458 99.4793C215.71 100.165 215.63 100.942 215.87 101.627C215.91 101.778 215.994 101.913 216.11 102.016C216.219 102.09 216.344 102.137 216.475 102.153C216.989 102.269 217.518 102.3 218.041 102.244C218.138 102.215 218.241 102.215 218.338 102.244C218.414 102.313 218.463 102.406 218.475 102.507C218.773 103.815 218.749 105.176 218.406 106.472C218.304 106.895 218.178 107.421 218.498 107.729C218.611 107.829 218.749 107.897 218.898 107.923C219.404 107.964 219.913 107.868 220.371 107.648C220.828 107.427 221.219 107.088 221.503 106.667C222.096 105.966 222.606 105.199 223.023 104.381C223.149 104.157 223.238 103.914 223.286 103.661C223.308 103.328 223.261 102.993 223.148 102.679C222.872 101.601 222.703 100.499 222.646 99.3879C222.709 97.9591 222.531 96.5299 222.12 95.16C221.964 94.6974 221.664 94.2969 221.263 94.0174C220.782 93.7946 220.247 93.7114 219.721 93.7774C218.678 93.6983 217.647 94.0352 216.852 94.7144C216.647 95.0572 216.213 96.5198 215.938 96.9883Z" fill="#FFBBAB"/>
<path d="M223.206 103.844C223.206 103.844 218.944 106.05 217.652 107.775C216.361 109.5 214.224 110.78 215.07 114.06C215.733 116.71 215.013 119.179 214.978 121.807C214.978 122.527 215.287 123.109 215.276 123.841C215.276 125.12 214.133 126.252 214.567 127.577C214.899 128.663 216.155 129.131 217.252 129.44L221.537 130.685C222.456 131.078 223.491 131.102 224.428 130.754C225.502 130.159 225.742 128.731 225.845 127.509C226.097 124.343 226.005 120.538 227.308 117.579C228.111 115.899 228.382 114.013 228.085 112.174C227.81 109.775 226.771 103.421 223.206 103.844Z" fill="white"/>
<path d="M217.31 94.6916C217.396 95.3952 217.732 96.0442 218.258 96.5198C218.761 96.9883 219.401 97.3082 219.903 97.7653C220.182 97.9726 220.404 98.2464 220.55 98.5618C220.696 98.8772 220.76 99.224 220.737 99.5707C220.938 99.4801 221.165 99.4661 221.376 99.5313C221.586 99.5966 221.766 99.7366 221.88 99.9249C221.938 100.054 221.958 100.196 221.938 100.336C221.917 100.475 221.858 100.606 221.766 100.713C221.672 100.815 221.557 100.896 221.428 100.949C221.3 101.002 221.162 101.027 221.023 101.022C221.562 101.24 222.024 101.614 222.349 102.096C222.714 102.633 222.897 103.239 223.228 103.844C223.643 104.41 224.158 104.894 224.748 105.273C225.022 105.452 225.25 105.695 225.411 105.981C225.532 106.409 225.681 106.829 225.857 107.238C226.234 107.775 226.643 108.29 227.079 108.78C227.659 109.637 227.991 110.638 228.039 111.671C228.011 111.364 228.011 111.054 228.039 110.746C228.142 110.563 228.245 110.38 228.336 110.197C228.504 109.862 228.634 109.51 228.725 109.146C228.85 108.314 228.873 107.47 228.793 106.632C228.793 104.838 230.484 101.456 229.125 99.9135C228.58 99.4648 228.003 99.0562 227.399 98.6908C226.256 97.6967 226.028 95.9485 225.274 94.5887C224.94 93.9906 224.49 93.4651 223.951 93.0433C223.411 92.6214 222.793 92.3116 222.132 92.132C220.315 91.6407 217.092 92.2006 217.31 94.6916Z" fill="#FC682D"/>
<path d="M223.068 106.621C223.068 106.621 215.401 107.855 214.681 107.661C213.962 107.466 213.962 114.014 213.962 114.014C213.962 114.014 221.96 113.774 224.543 112.106C227.125 110.437 226.622 107.021 223.068 106.621Z" fill="white"/>
<path d="M214.83 113.534C214.498 113.665 214.143 113.729 213.786 113.722C213.429 113.716 213.076 113.638 212.749 113.495C212.422 113.352 212.127 113.145 211.88 112.887C211.633 112.629 211.439 112.324 211.311 111.991L205.175 100.77C205.175 99.7878 204.615 98.7137 204.923 97.7881C205.083 97.3425 205.403 96.9769 205.563 96.5426C205.769 95.9702 205.769 95.344 205.563 94.7715C205.338 94.2172 205.055 93.6886 204.717 93.1947C204.78 93.0262 204.901 92.8859 205.058 92.7998C205.216 92.7136 205.399 92.6875 205.574 92.7262C205.921 92.8202 206.231 93.0151 206.466 93.2861C206.988 93.8273 207.398 94.4663 207.672 95.1663C207.947 95.8663 208.08 96.6136 208.065 97.3654C207.997 97.8237 207.997 98.2897 208.065 98.748C208.161 99.0594 208.308 99.3529 208.5 99.6164C210.465 102.747 212.933 105.524 214.899 108.655C215.395 109.367 215.745 110.171 215.927 111.02C215.953 111.496 215.867 111.971 215.677 112.407C215.486 112.844 215.196 113.23 214.83 113.534Z" fill="#FFBBAB"/>
<path d="M220.338 172.54L220.006 172.632C219.255 172.814 218.491 172.94 217.721 173.009C217.579 173.048 217.429 173.048 217.287 173.009C217.195 172.952 217.118 172.875 217.06 172.784C217.003 172.693 216.967 172.59 216.955 172.483C216.937 172.27 216.894 172.059 216.83 171.855C216.818 171.811 216.789 171.774 216.75 171.752C216.712 171.741 216.673 171.741 216.635 171.752C216.041 171.853 215.481 172.096 215.001 172.46C214.013 173.05 213.218 173.916 212.716 174.951C212.674 175.041 212.654 175.139 212.659 175.237C212.682 175.319 212.725 175.393 212.785 175.454C213.63 176.448 215.321 175.946 216.35 175.568C217.378 175.191 218.566 174.563 219.778 174.209C220.989 173.854 222.486 173.717 223.526 172.872C223.697 172.748 223.835 172.583 223.925 172.392C223.984 172.055 223.947 171.71 223.82 171.393C223.693 171.076 223.48 170.801 223.206 170.598C223.159 170.55 223.099 170.518 223.034 170.507C222.991 170.507 222.948 170.516 222.909 170.534C222.87 170.551 222.834 170.577 222.806 170.609C222.303 171.021 222.029 171.649 221.537 172.061C221.177 172.306 220.768 172.47 220.338 172.54Z" fill="#037171"/>
<path d="M205.003 119.27H133.302V69.3247H205.06L205.003 119.27ZM133.885 118.63H204.363V69.9646H133.885V118.63Z" fill="#68E1FD"/>
<path d="M139.701 110.3L137.027 107.535L149.916 95.0801L158.246 98.8965L172.7 85.4818L180.299 90.2809L195.108 78.1688L197.542 81.1397L180.596 95.0115L173.146 90.3152L158.977 103.467L150.704 99.6735L139.701 110.3Z" fill="#00B9AE"/>
<path d="M200.25 86.4302H196.41V79.8714H189.669V76.0206H200.25V86.4302Z" fill="#00B9AE"/>
</g>
<defs>
<linearGradient id="paint0_linear" x1="1708.06" y1="2227.4" x2="1569.85" y2="1381.56" gradientUnits="userSpaceOnUse">
<stop offset="0.01"/>
<stop offset="0.08" stop-opacity="0.69"/>
<stop offset="0.21" stop-opacity="0.32"/>
<stop offset="1" stop-opacity="0"/>
</linearGradient>
<linearGradient id="paint1_linear" x1="3005.2" y1="5678.27" x2="2785.25" y2="5701.75" gradientUnits="userSpaceOnUse">
<stop offset="0.01"/>
<stop offset="0.08" stop-opacity="0.69"/>
<stop offset="0.21" stop-opacity="0.32"/>
<stop offset="1" stop-opacity="0"/>
</linearGradient>
<linearGradient id="paint2_linear" x1="5907.11" y1="1741.89" x2="5770.69" y2="1989.36" gradientUnits="userSpaceOnUse">
<stop offset="0.01"/>
<stop offset="0.08" stop-opacity="0.69"/>
<stop offset="0.21" stop-opacity="0.32"/>
<stop offset="1" stop-opacity="0"/>
</linearGradient>
<linearGradient id="paint3_linear" x1="2459.17" y1="5037.52" x2="2535.83" y2="5039.68" gradientUnits="userSpaceOnUse">
<stop offset="0.01" stop-color="#034D4D"/>
<stop offset="0.08" stop-opacity="0.69"/>
<stop offset="0.21" stop-opacity="0.32"/>
<stop offset="1" stop-opacity="0"/>
</linearGradient>
<linearGradient id="paint4_linear" x1="9381.99" y1="3163.72" x2="8706.67" y2="3387.66" gradientUnits="userSpaceOnUse">
<stop offset="0.01"/>
<stop offset="0.08" stop-opacity="0.69"/>
<stop offset="0.21" stop-opacity="0.32"/>
<stop offset="1" stop-opacity="0"/>
</linearGradient>
<linearGradient id="paint5_linear" x1="6784.01" y1="2609.44" x2="6829.04" y2="3826.17" gradientUnits="userSpaceOnUse">
<stop offset="0.01" stop-color="#037171"/>
<stop offset="0.08" stop-opacity="0.69"/>
<stop offset="0.21" stop-opacity="0.32"/>
<stop offset="1" stop-opacity="0"/>
</linearGradient>
<linearGradient id="paint6_linear" x1="3417.76" y1="2639.41" x2="2668.52" y2="2810.21" gradientUnits="userSpaceOnUse">
<stop offset="0.01"/>
<stop offset="0.08" stop-opacity="0.69"/>
<stop offset="0.21" stop-opacity="0.32"/>
<stop offset="1" stop-opacity="0"/>
</linearGradient>
<linearGradient id="paint7_linear" x1="1597.98" y1="2841.79" x2="1272.31" y2="2819.66" gradientUnits="userSpaceOnUse">
<stop offset="0.01"/>
<stop offset="0.08" stop-opacity="0.69"/>
<stop offset="0.21" stop-opacity="0.32"/>
<stop offset="1" stop-opacity="0"/>
</linearGradient>
<linearGradient id="paint8_linear" x1="2578.85" y1="2710.98" x2="4141" y2="2393.25" gradientUnits="userSpaceOnUse">
<stop offset="0.01" stop-color="#5E595E"/>
<stop offset="0.08" stop-opacity="0.69"/>
<stop offset="0.21" stop-opacity="0.32"/>
<stop offset="1" stop-opacity="0"/>
</linearGradient>
<linearGradient id="paint9_linear" x1="2769.59" y1="1417.9" x2="2472.11" y2="1323.26" gradientUnits="userSpaceOnUse">
<stop offset="0.01"/>
<stop offset="0.08" stop-opacity="0.69"/>
<stop offset="0.21" stop-opacity="0.32"/>
<stop offset="1" stop-opacity="0"/>
</linearGradient>
<linearGradient id="paint10_linear" x1="1872.62" y1="5905.5" x2="2223.92" y2="5879.59" gradientUnits="userSpaceOnUse">
<stop offset="0.01" stop-opacity="0.42"/>
<stop offset="0.08" stop-opacity="0.69"/>
<stop offset="0.21" stop-opacity="0.32"/>
<stop offset="1" stop-opacity="0"/>
</linearGradient>
<linearGradient id="paint11_linear" x1="1436.11" y1="947.672" x2="1510.76" y2="829.74" gradientUnits="userSpaceOnUse">
<stop offset="0.01" stop-color="#037171"/>
<stop offset="0.08" stop-opacity="0.69"/>
<stop offset="0.21" stop-opacity="0.32"/>
<stop offset="1" stop-opacity="0"/>
</linearGradient>
<linearGradient id="paint12_linear" x1="1142.38" y1="2259.37" x2="1380.32" y2="2244.67" gradientUnits="userSpaceOnUse">
<stop offset="0.01" stop-color="#473F47"/>
<stop offset="0.08" stop-opacity="0.69"/>
<stop offset="0.21" stop-opacity="0.32"/>
<stop offset="1" stop-opacity="0"/>
</linearGradient>
<clipPath id="clip0">
<rect width="254.4" height="190.8" fill="white"/>
</clipPath>
</defs>
</svg>
