<svg width="1781" height="1078" viewBox="0 0 1781 1078" fill="none" xmlns="http://www.w3.org/2000/svg">
<rect width="1781" height="1078" fill="#E5E5E5"/>
<g clip-path="url(#clip0)">
<rect width="1781" height="1078" fill="white"/>
<path d="M-512.037 1112.1L-2716.02 1496C-2641.82 1513.16 -202.836 802.34 -54.4194 819.5C93.9972 837.54 242.414 799.7 390.831 709.94C539.247 619.3 687.664 441.1 836.081 476.3C984.497 511.5 1078.08 126.94 1226.5 198C1374.92 269.94 1525.6 -236.94 1674.02 -272.8C1822.43 -309.54 2023.41 764.5 2171.83 799.7C2320.25 834.9 2468.66 872.3 2617.08 817.74C2765.5 764.5 2913.91 619.3 3062.33 476.3C3210.75 333.3 3359.16 188.1 3507.58 242.66C3656 295.9 3804.41 548.9 3952.83 584.1C4101.25 619.3 4249.66 441.1 4398.08 458.26C4546.5 476.3 4694.91 691.9 4843.33 745.8C4991.75 799.7 5140.16 691.9 5288.58 566.06C5437 441.1 5585.41 295.9 5733.83 260.7C5882.25 225.5 6030.66 295.9 6179.08 386.54C6327.5 476.3 6475.91 584.1 6624.33 584.1C6772.75 584.1 6921.16 476.3 7069.58 404.36C7218 333.3 7366.41 295.9 7514.83 314.6C7663.25 333.3 7811.66 403.7 7960.08 440.44C8108.5 476.3 8256.91 476.3 8405.33 476.3C8553.75 476.3 8702.16 476.3 8850.58 494.34C8999 511.5 9147.41 548.9 9295.83 584.1C9444.25 619.3 9592.66 656.7 9741.08 691.9C9889.5 727.1 10037.9 764.5 10112.1 781.66L10186.3 799.7V1123.1H10112.1C10037.9 1123.1 9889.5 1123.1 9741.08 1123.1C9592.66 1123.1 9444.25 1123.1 9295.83 1123.1C9147.41 1123.1 8999 1123.1 8850.58 1123.1C8702.16 1123.1 8553.75 1123.1 8405.33 1123.1C8256.91 1123.1 8108.5 1123.1 7960.08 1123.1C7811.66 1123.1 7663.25 1123.1 7514.83 1123.1C7366.41 1123.1 7218 1123.1 7069.58 1123.1C6921.16 1123.1 6772.75 1123.1 6624.33 1123.1C6475.91 1123.1 6327.5 1123.1 6179.08 1123.1C6030.66 1123.1 5882.25 1123.1 5733.83 1123.1C5585.41 1123.1 5437 1123.1 5288.58 1123.1C5140.16 1123.1 4991.75 1123.1 4843.33 1123.1C4694.91 1123.1 4546.5 1123.1 4398.08 1123.1C4249.66 1123.1 4101.25 1123.1 3952.83 1123.1C3804.41 1123.1 3656 1123.1 3507.58 1123.1C3359.16 1123.1 3210.75 1123.1 3062.33 1123.1C2913.91 1123.1 2765.5 1123.1 2617.08 1123.1C2468.66 1123.1 2320.25 1123.1 2171.83 1123.1C2023.41 1123.1 1875 1123.1 1726.58 1123.1C1578.16 1123.1 1429.75 1123.1 1281.33 1123.1C1132.91 1123.1 984.497 1123.1 836.081 1123.1C687.664 1123.1 539.247 1123.1 390.831 1123.1C242.414 1123.1 93.9972 1123.1 -54.4194 1123.1C-202.836 1123.1 -351.253 1123.1 -425.461 1123.1H-499.669L-512.037 1112.1Z" fill="#00B9AE"/>
</g>
<defs>
<clipPath id="clip0">
<rect width="1781" height="1078" fill="white"/>
</clipPath>
</defs>
</svg>
